<svg width="167" height="47" viewBox="0 0 167 47" fill="none" xmlns="http://www.w3.org/2000/svg">
<path d="M22.72 46.752C21.376 46.752 19.296 45.888 16.48 44.16C13.696 42.464 11.856 41.616 10.96 41.616C8.976 44.304 7.424 45.648 6.304 45.648C5.728 45.648 4.976 45.088 4.048 43.968C3.152 42.88 2.704 41.728 2.704 40.512C2.704 40.224 2.944 39.84 3.424 39.36C3.936 38.88 4.736 38.416 5.824 37.968C6.912 37.552 8.16 37.344 9.568 37.344C11.008 37.344 13.328 37.728 16.528 38.496C19.728 39.264 22.176 39.648 23.872 39.648C24.256 39.648 24.56 39.616 24.784 39.552C25.392 39.328 26.16 38.56 27.088 37.248L29.824 38.16C28.864 43.888 26.496 46.752 22.72 46.752ZM27.568 6.192C28.496 7.472 29.184 8.832 29.632 10.272C30.08 11.712 30.304 13.424 30.304 15.408C30.304 17.392 29.952 19.6 29.248 22.032C28.576 24.464 27.552 26.8 26.176 29.04C24.832 31.248 22.96 33.056 20.56 34.464C18.16 35.872 15.424 36.576 12.352 36.576C8.608 36.576 5.664 35.312 3.52 32.784C1.376 30.256 0.304 27.072 0.304 23.232C0.304 19.392 1.024 15.888 2.464 12.72C3.936 9.52 6.016 6.928 8.704 4.944C11.424 2.928 14.448 1.92 17.776 1.92C20.016 1.92 21.968 2.304 23.632 3.072C25.328 3.84 26.64 4.88 27.568 6.192ZM11.488 32.256C12.064 32.704 12.896 32.928 13.984 32.928C15.104 32.928 16.144 32.288 17.104 31.008C18.096 29.696 18.864 28.016 19.408 25.968C20.432 21.936 20.944 17.76 20.944 13.44C20.944 8.192 19.664 5.568 17.104 5.568C15.888 5.568 14.784 6.144 13.792 7.296C12.832 8.416 12.064 9.888 11.488 11.712C10.304 15.424 9.712 19.408 9.712 23.664C9.712 28.432 10.304 31.296 11.488 32.256ZM31.8363 32.112C31.8363 30.768 32.2523 28.56 33.0843 25.488C33.9483 22.416 34.3803 20.528 34.3803 19.824C34.3803 19.12 33.8043 18.096 32.6523 16.752L32.7483 16.032C35.6603 15.392 39.0683 15.072 42.9723 15.072C43.2283 15.616 43.3563 16.48 43.3563 17.664C43.3563 18.848 42.9083 21.088 42.0123 24.384C41.1483 27.68 40.7163 29.632 40.7163 30.24C40.7163 31.072 41.1163 31.488 41.9163 31.488C42.4603 31.488 43.1483 31.28 43.9803 30.864C44.0763 30.352 44.3643 29.008 44.8443 26.832C45.9643 22 46.5243 18.384 46.5243 15.984C47.9963 15.344 50.5083 15.024 54.0603 15.024H55.3563C55.3563 16.464 54.9243 19.28 54.0603 23.472C53.2283 27.664 52.7963 30.08 52.7643 30.72C52.7643 31.36 52.9083 31.68 53.1963 31.68L55.5483 31.056L56.4123 33.456C55.4843 34.192 54.1403 34.896 52.3803 35.568C50.6203 36.24 49.0683 36.576 47.7243 36.576C45.7403 36.576 44.5083 35.776 44.0283 34.176C41.3723 35.776 38.8283 36.576 36.3963 36.576C33.3563 36.576 31.8363 35.088 31.8363 32.112ZM57.1319 27.312C57.1319 23.344 58.3319 20.256 60.7319 18.048C63.1639 15.84 66.1559 14.736 69.7079 14.736C72.1719 14.736 74.1399 15.28 75.6119 16.368C77.1159 17.424 77.8679 18.848 77.8679 20.64C77.8679 21.952 77.4679 23.12 76.6679 24.144C75.8679 25.168 74.8919 25.952 73.7399 26.496C71.3079 27.584 69.1959 28.24 67.4039 28.464L66.2039 28.608C66.5559 30.72 67.6119 31.776 69.3719 31.776C70.1399 31.776 70.9879 31.616 71.9159 31.296C72.8439 30.944 73.5799 30.592 74.1239 30.24L74.9399 29.76L76.4759 31.824C76.4759 31.824 76.2999 32 75.9479 32.352C75.7559 32.544 75.2919 32.928 74.5559 33.504C73.8519 34.048 73.0999 34.528 72.2999 34.944C71.5319 35.36 70.5399 35.728 69.3239 36.048C68.1079 36.4 66.8919 36.576 65.6759 36.576C62.9559 36.576 60.8439 35.792 59.3399 34.224C57.8679 32.624 57.1319 30.32 57.1319 27.312ZM66.0119 25.44C66.9399 25.312 67.8679 24.56 68.7959 23.184C69.7239 21.776 70.1879 20.608 70.1879 19.68C70.1879 18.72 69.9159 18.24 69.3719 18.24C68.5719 18.24 67.8359 18.864 67.1639 20.112C66.4919 21.36 66.1079 23.136 66.0119 25.44ZM95.2109 29.52C95.2109 31.504 94.2829 33.184 92.4269 34.56C90.6029 35.904 88.4589 36.576 85.9949 36.576C83.5309 36.576 81.4989 36.16 79.8989 35.328C78.3309 34.496 77.5469 33.712 77.5469 32.976C77.5469 32.208 78.0269 31.248 78.9869 30.096C79.9789 28.912 80.9869 28.224 82.0109 28.032C83.4829 28.832 84.8109 30.608 85.9949 33.36C86.9229 33.36 87.3869 33.056 87.3869 32.448C87.3869 32 87.2589 31.584 87.0029 31.2C86.7469 30.816 86.5549 30.512 86.4269 30.288C86.2989 30.064 86.0749 29.76 85.7549 29.376C85.4349 28.96 85.1949 28.656 85.0349 28.464C84.2349 27.504 83.5149 26.624 82.8749 25.824C81.3389 23.904 80.5709 22.224 80.5709 20.784C80.5709 19.312 81.0349 18.112 81.9629 17.184C83.5629 15.552 85.9149 14.736 89.0189 14.736C90.9709 14.736 92.5229 15.12 93.6749 15.888C94.8269 16.624 95.4029 17.744 95.4029 19.248C95.4029 20.72 94.5229 22.416 92.7629 24.336C94.3949 26.224 95.2109 27.952 95.2109 29.52ZM91.9949 20.736C92.3789 20.128 92.5709 19.584 92.5709 19.104C92.5709 18.624 92.3629 18.256 91.9469 18C91.5309 17.744 91.0349 17.616 90.4589 17.616C89.8829 17.616 89.4349 17.76 89.1149 18.048C88.8269 18.304 88.6829 18.656 88.6829 19.104C88.6829 19.552 89.3709 20.544 90.7469 22.08C91.1949 21.76 91.6109 21.312 91.9949 20.736ZM113.872 19.008L109.744 18.672C108.464 24.4 107.76 27.728 107.632 28.656C107.536 29.584 107.488 30.352 107.488 30.96C107.488 31.536 107.68 31.824 108.064 31.824C108.512 31.824 109.36 31.536 110.608 30.96L111.76 33.264C110.736 34.192 109.44 34.976 107.872 35.616C106.304 36.256 104.784 36.576 103.312 36.576C101.872 36.576 100.72 36.208 99.8556 35.472C98.9916 34.704 98.5596 33.632 98.5596 32.256C98.5596 30.88 98.9596 28.672 99.7596 25.632C100.56 22.592 101.088 20.336 101.344 18.864C100.576 18.928 99.4396 19.04 97.9356 19.2C97.8076 18.528 97.7436 17.904 97.7436 17.328C97.7436 16.72 97.8236 16.048 97.9836 15.312H101.824C101.856 14.896 101.872 13.504 101.872 11.136L101.776 9.168C104.88 8.144 107.84 7.632 110.656 7.632C110.88 8.144 110.992 9.04 110.992 10.32C110.992 11.568 110.784 13.232 110.368 15.312H114.688C114.688 16.624 114.416 17.856 113.872 19.008ZM125.146 18C125.146 19.408 124.746 21.6 123.946 24.576C123.146 27.52 122.746 29.44 122.746 30.336C122.746 31.232 122.922 31.68 123.274 31.68C123.626 31.68 124.266 31.52 125.194 31.2L125.626 31.008L126.49 33.408C125.402 34.24 124.042 34.976 122.41 35.616C120.81 36.256 119.354 36.576 118.042 36.576C116.73 36.576 115.69 36.208 114.922 35.472C114.186 34.736 113.818 33.68 113.818 32.304C113.818 30.896 114.202 28.768 114.97 25.92C115.77 23.04 116.17 21.216 116.17 20.448C116.17 19.264 115.754 18.144 114.922 17.088L114.538 16.56L114.682 15.744C116.346 15.232 119.578 14.976 124.378 14.976C124.89 15.552 125.146 16.56 125.146 18ZM121.546 11.232C120.106 11.232 118.97 10.848 118.138 10.08C117.338 9.312 116.938 8.336 116.938 7.152C116.938 5.936 117.434 4.928 118.426 4.128C119.45 3.296 120.682 2.88 122.122 2.88C123.562 2.88 124.682 3.216 125.482 3.888C126.282 4.56 126.682 5.504 126.682 6.72C126.682 7.936 126.186 8.992 125.194 9.888C124.234 10.784 123.018 11.232 121.546 11.232ZM143.809 19.008L139.585 18.672C139.297 24.08 138.657 29.248 137.665 34.176C136.705 39.104 135.745 42.192 134.785 43.44C133.185 43.408 131.633 43.216 130.129 42.864C128.625 42.544 127.601 42.224 127.057 41.904C128.273 37.808 129.137 34.272 129.649 31.296C130.161 28.288 130.673 24.144 131.185 18.864L128.017 19.2C127.889 18.592 127.825 17.984 127.825 17.376C127.825 16.736 127.905 16.048 128.065 15.312H131.521C132.001 10.544 132.673 7.328 133.537 5.664C134.657 3.456 136.001 2.048 137.569 1.44C138.529 1.024 139.745 0.815998 141.217 0.815998C142.689 0.815998 143.921 1.248 144.913 2.112C145.937 2.944 146.449 4.08 146.449 5.52C146.449 6.928 145.793 8.56 144.481 10.416C143.169 12.272 141.585 13.904 139.729 15.312H144.577C144.577 16.752 144.321 17.984 143.809 19.008ZM142.417 4.416C141.073 4.416 140.225 6.768 139.873 11.472C140.993 10.576 141.889 9.6 142.561 8.544C143.265 7.456 143.617 6.496 143.617 5.664C143.617 4.832 143.217 4.416 142.417 4.416ZM165.765 15.072H166.149C165.989 15.904 165.717 17.696 165.333 20.448C164.469 26.72 163.541 31.456 162.549 34.656C160.085 42.72 156.133 46.752 150.693 46.752C149.061 46.752 147.733 46.4 146.709 45.696C145.717 45.024 145.221 44.128 145.221 43.008C145.221 41.92 145.477 41.008 145.989 40.272C146.533 39.568 147.301 38.976 148.293 38.496C149.989 37.664 152.069 36.976 154.533 36.432C154.789 35.216 154.949 34.432 155.013 34.08C152.517 35.424 150.149 36.096 147.909 36.096C144.837 36.096 143.301 34.592 143.301 31.584C143.301 30.528 143.653 28.464 144.357 25.392C145.061 22.288 145.413 20.144 145.413 18.96C145.413 17.776 145.333 16.896 145.173 16.32C148.949 15.52 151.877 15.12 153.957 15.12C154.213 15.504 154.341 16.272 154.341 17.424C154.341 18.544 153.973 20.736 153.237 24C152.533 27.264 152.181 29.184 152.181 29.76C152.181 30.752 152.661 31.248 153.621 31.248C154.165 31.248 154.789 31.104 155.493 30.816C155.749 29.184 156.101 26.704 156.549 23.376C157.029 20.016 157.365 17.712 157.557 16.464C158.389 16.08 159.637 15.76 161.301 15.504C162.997 15.216 164.485 15.072 165.765 15.072ZM148.629 42.096C148.629 42.832 149.109 43.2 150.069 43.2C150.549 43.2 151.173 42.864 151.941 42.192C152.741 41.552 153.381 40.592 153.861 39.312C150.373 39.92 148.629 40.848 148.629 42.096Z" fill="#440066"/>
</svg>
