<svg width="158" height="46" viewBox="0 0 158 46" fill="none" xmlns="http://www.w3.org/2000/svg">
<path d="M22.704 26.216C22.704 28.872 21.424 31.096 18.864 32.888C16.336 34.68 13.392 35.576 10.032 35.576C7.408 35.576 5.184 35.016 3.36 33.896C1.568 32.776 0.672 31.704 0.672 30.68C1.184 29.432 2.16 28.088 3.6 26.648C5.04 25.208 6.368 24.456 7.584 24.392C8.384 24.744 9.12 25.624 9.792 27.032C10.496 28.408 11.056 30.008 11.472 31.832C13.2 31.768 14.064 30.792 14.064 28.904C14.064 27.656 13.584 26.136 12.624 24.344C11.696 22.52 10.672 20.824 9.552 19.256C8.432 17.688 7.392 15.944 6.432 14.024C5.504 12.104 5.04 10.424 5.04 8.984C5.04 6.616 6.128 4.68 8.304 3.176C10.48 1.672 12.896 0.919998 15.552 0.919998C18.24 0.919998 20.32 1.496 21.792 2.648C23.296 3.8 24.048 5.128 24.048 6.632C24.048 7.88 23.792 8.888 23.28 9.656C22.768 10.392 22.352 10.968 22.032 11.384C21.744 11.768 21.344 12.184 20.832 12.632C19.872 13.464 19.136 14.072 18.624 14.456L17.904 14.984C19.792 17.32 21.216 20.04 22.176 23.144C22.528 24.264 22.704 25.288 22.704 26.216ZM20.208 6.968C20.208 5.464 19.248 4.712 17.328 4.712C16.208 4.712 15.296 4.952 14.592 5.432C13.92 5.912 13.584 6.52 13.584 7.256C13.584 7.96 13.872 8.824 14.448 9.848C15.056 10.872 15.536 11.592 15.888 12.008C16.656 11.624 17.568 10.92 18.624 9.896C19.68 8.872 20.208 7.896 20.208 6.968ZM37.287 17C37.287 18.408 36.887 20.6 36.087 23.576C35.287 26.52 34.887 28.44 34.887 29.336C34.887 30.232 35.063 30.68 35.415 30.68C35.767 30.68 36.407 30.52 37.335 30.2L37.767 30.008L38.631 32.408C37.543 33.24 36.183 33.976 34.551 34.616C32.951 35.256 31.495 35.576 30.183 35.576C28.871 35.576 27.831 35.208 27.063 34.472C26.327 33.736 25.959 32.68 25.959 31.304C25.959 29.896 26.343 27.768 27.111 24.92C27.911 22.04 28.311 20.216 28.311 19.448C28.311 18.264 27.895 17.144 27.063 16.088L26.679 15.56L26.823 14.744C28.487 14.232 31.719 13.976 36.519 13.976C37.031 14.552 37.287 15.56 37.287 17ZM33.687 10.232C32.247 10.232 31.111 9.848 30.279 9.08C29.479 8.312 29.079 7.336 29.079 6.152C29.079 4.936 29.575 3.928 30.567 3.128C31.591 2.296 32.823 1.88 34.263 1.88C35.703 1.88 36.823 2.216 37.623 2.888C38.423 3.56 38.823 4.504 38.823 5.72C38.823 6.936 38.327 7.992 37.335 8.888C36.375 9.784 35.159 10.232 33.687 10.232ZM52.2536 32.936C50.0136 34.152 48.0136 34.76 46.2536 34.76C44.5256 34.76 43.0696 34.072 41.8856 32.696C40.7336 31.288 40.1576 29.208 40.1576 26.456C40.1576 22.776 41.1496 19.736 43.1336 17.336C45.1496 14.936 47.5496 13.736 50.3336 13.736C51.6776 13.736 53.1976 14.104 54.8936 14.84C56.8776 14.232 59.1336 13.928 61.6616 13.928H62.4776C62.6376 14.248 62.7176 14.968 62.7176 16.088C62.7176 17.176 62.5096 19.336 62.0936 22.568C61.7096 25.8 61.2776 28.504 60.7976 30.68C59.7736 35.32 58.1736 38.984 55.9976 41.672C53.8536 44.392 51.1496 45.752 47.8856 45.752C46.2856 45.752 44.9736 45.4 43.9496 44.696C42.9576 43.992 42.4616 43.096 42.4616 42.008C42.4616 40.92 42.7176 40.008 43.2296 39.272C43.7736 38.568 44.5416 37.976 45.5336 37.496C47.2296 36.664 49.3096 35.976 51.7736 35.432L52.2536 32.936ZM52.5416 17.624C51.4216 17.624 50.5576 18.584 49.9496 20.504C49.3736 22.424 49.0856 24.504 49.0856 26.744C49.0856 28.984 49.6136 30.104 50.6696 30.104C51.1176 30.104 51.7736 29.88 52.6376 29.432C52.8936 26.84 53.3096 23 53.8856 17.912C53.4056 17.72 52.9576 17.624 52.5416 17.624ZM47.0696 42.2C47.6776 42.2 48.3656 41.896 49.1336 41.288C49.9336 40.68 50.5896 39.688 51.1016 38.312C47.6136 38.92 45.8696 39.848 45.8696 41.096C45.9336 41.832 46.3336 42.2 47.0696 42.2ZM65.6366 35.288H64.8206C64.8206 33.304 65.2686 30.296 66.1646 26.264C67.0926 22.232 67.5566 19.912 67.5566 19.304C67.5566 18.696 67.4126 18.104 67.1246 17.528C66.8366 16.952 66.5486 16.52 66.2606 16.232L65.8286 15.8L65.9246 15.08C67.8126 14.472 71.1086 14.168 75.8126 14.168C76.1326 14.904 76.3566 15.672 76.4846 16.472C79.3966 14.68 81.8446 13.784 83.8286 13.784C85.1726 13.784 86.2286 14.232 86.9966 15.128C87.7646 15.992 88.1486 17.048 88.1486 18.296C88.1486 19.512 87.7966 21.48 87.0926 24.2C86.3886 26.92 86.0366 28.696 86.0366 29.528C86.0366 30.328 86.1486 30.728 86.3726 30.728L88.9166 30.056L89.7806 32.456C88.7566 33.224 87.4126 33.944 85.7486 34.616C84.1166 35.256 82.6126 35.576 81.2366 35.576C78.5166 35.576 77.1566 34.168 77.1566 31.352C77.1566 30.136 77.4926 28.152 78.1646 25.4C78.8366 22.648 79.1726 20.936 79.1726 20.264C79.1726 19.56 78.9486 19.208 78.5006 19.208C77.9246 19.208 77.1566 19.528 76.1966 20.168C76.0686 20.744 75.7486 22.136 75.2366 24.344C74.2126 28.984 73.7006 32.328 73.7006 34.376C72.1326 34.984 69.4446 35.288 65.6366 35.288ZM114.016 29.24C115.328 29.24 116.992 28.664 119.008 27.512C119.072 27.064 119.808 23.784 121.216 17.672C122.624 11.528 123.328 7.16 123.328 4.568C123.328 3.608 123.312 2.952 123.28 2.6C126.48 1.48 129.536 0.919998 132.448 0.919998C132.64 1.144 132.736 1.688 132.736 2.552C132.736 4.472 131.936 8.952 130.336 15.992C128.768 23.032 127.984 27.176 127.984 28.424C127.984 29.64 128.208 30.248 128.656 30.248C128.944 30.248 129.808 30.04 131.248 29.624L132.256 32.312C129.248 34.488 126.352 35.576 123.568 35.576C122.256 35.576 121.184 35.208 120.352 34.472C119.52 33.736 119.008 32.744 118.816 31.496C114.88 34.216 111.504 35.576 108.688 35.576C106.864 35.576 105.36 35.08 104.176 34.088C103.024 33.064 102.448 31.688 102.448 29.96C102.448 28.2 103.136 24.6 104.512 19.16C105.888 13.72 106.576 9.592 106.576 6.776C106.576 6.232 106.4 5.64 106.048 5C105.728 4.36 105.408 3.848 105.088 3.464L104.56 2.888L104.704 1.928C106.72 1.256 110.192 0.919998 115.12 0.919998C115.728 1.752 116.032 3.16 116.032 5.144C116.032 7.128 115.344 10.952 113.968 16.616C112.592 22.28 111.904 25.688 111.904 26.84C111.904 28.44 112.608 29.24 114.016 29.24ZM133.076 45.752C132.82 45.336 132.692 44.456 132.692 43.112C132.692 41.768 133.3 38.12 134.516 32.168C135.764 26.216 136.388 22.488 136.388 20.984C136.388 19.48 136.244 18.344 135.956 17.576C135.668 16.776 135.38 16.264 135.092 16.04L134.66 15.704L134.756 14.984C136.676 14.376 139.924 14.072 144.5 14.072C144.756 14.552 144.964 15.176 145.124 15.944C147.172 14.472 149.108 13.736 150.932 13.736C152.756 13.736 154.244 14.44 155.396 15.848C156.58 17.224 157.172 19.576 157.172 22.904C157.172 26.232 156.292 29.176 154.532 31.736C152.804 34.296 150.26 35.576 146.9 35.576C145.428 35.576 143.988 35.288 142.58 34.712C141.844 38.328 141.476 41.512 141.476 44.264C139.172 45.096 136.372 45.592 133.076 45.752ZM144.692 31.544C145.556 31.544 146.292 30.904 146.9 29.624C147.988 27.384 148.532 24.664 148.532 21.464C148.532 19.576 148.068 18.632 147.14 18.632C146.66 18.632 146.02 18.808 145.22 19.16C145.028 21.848 144.388 25.896 143.3 31.304C143.844 31.464 144.308 31.544 144.692 31.544Z" fill="#440066"/>
</svg>
